<?xml version="1.0" encoding="UTF-8" standalone="no"?>
<svg width="36px" height="36px" viewBox="0 0 36 36" version="1.1" xmlns="http://www.w3.org/2000/svg" xmlns:xlink="http://www.w3.org/1999/xlink" xmlns:sketch="http://www.bohemiancoding.com/sketch/ns">
    <!-- Generator: Sketch 3.3.3 (12072) - http://www.bohemiancoding.com/sketch -->
    <title>Close</title>
    <desc>Created with Sketch.</desc>
    <defs>
        <filter x="-50%" y="-50%" width="200%" height="200%" filterUnits="objectBoundingBox" id="filter-1">
            <feOffset dx="0" dy="2" in="SourceAlpha" result="shadowOffsetOuter1"></feOffset>
            <feGaussianBlur stdDeviation="1" in="shadowOffsetOuter1" result="shadowBlurOuter1"></feGaussianBlur>
            <feColorMatrix values="0 0 0 0 0   0 0 0 0 0   0 0 0 0 0  0 0 0 0.14 0" in="shadowBlurOuter1" type="matrix" result="shadowMatrixOuter1"></feColorMatrix>
            <feMerge>
                <feMergeNode in="shadowMatrixOuter1"></feMergeNode>
                <feMergeNode in="SourceGraphic"></feMergeNode>
            </feMerge>
        </filter>
    </defs>
    <g id="Design" stroke="none" stroke-width="1" fill="none" fill-rule="evenodd" sketch:type="MSPage">
        <g id="buffer-signup-light" sketch:type="MSArtboardGroup" transform="translate(-477.000000, -9.000000)">
            <g id="Close" sketch:type="MSLayerGroup" transform="translate(479.000000, 9.000000)">
                <circle fill="#323B43" filter="url(#filter-1)" sketch:type="MSShapeGroup" cx="16" cy="16" r="16"></circle>
                <path d="M18,14 L18,8.99645596 C18,8.44020353 17.5480902,8 16.9906311,8 L15.0093689,8 C14.4433532,8 14,8.4481055 14,9.00087166 L14,14 L8.99645596,14 C8.44020353,14 8,14.4519098 8,15.0093689 L8,16.9906311 C8,17.5566468 8.4481055,18 9.00087166,18 L14,18 L14,22.9991283 C14,23.5553691 14.4519098,24 15.0093689,24 L16.9906311,24 C17.5566468,24 18,23.5538715 18,23.003544 L18,18 L22.9991283,18 C23.5553691,18 24,17.5480902 24,16.9906311 L24,15.0093689 C24,14.4433532 23.5538715,14 23.003544,14 L18,14 Z" id="X" stroke="#323B43" fill="#FFFFFF" sketch:type="MSShapeGroup" transform="translate(16.000000, 16.000000) rotate(-315.000000) translate(-16.000000, -16.000000) "></path>
            </g>
        </g>
    </g>
</svg>